<svg width="331" height="126" viewBox="0 0 331 126" fill="none" xmlns="http://www.w3.org/2000/svg">
    <path opacity="0.1" d="M67 0L67 112" stroke="black"/>
    <path opacity="0.1" d="M331 88L6.55651e-07 88" stroke="black" stroke-dasharray="2 2"/>
    <path opacity="0.1" d="M331 32L6.55651e-07 32" stroke="black" stroke-dasharray="2 2"/>
    <path opacity="0.1" d="M143 0L143 112" stroke="black"/>
    <path opacity="0.1" d="M219 0L219 112" stroke="black"/>
    <path opacity="0.1" d="M295 0L295 112" stroke="black"/>
    <path d="M3.87784 25.1449C5.89347 25.1449 7.07386 23.5 7.07386 20.6406C7.07386 17.8026 5.87642 16.1534 3.87784 16.1534C1.875 16.1534 0.681818 17.7983 0.677557 20.6406C0.677557 23.4957 1.85795 25.1406 3.87784 25.1449ZM3.87784 24.0071C2.69744 24.0071 1.9858 22.8224 1.9858 20.6406C1.99006 18.4673 2.7017 17.2699 3.87784 17.2699C5.04972 17.2699 5.76562 18.4673 5.76562 20.6406C5.76562 22.8224 5.05398 24.0071 3.87784 24.0071Z" fill="black" fill-opacity="0.4"/>
    <path d="M3.46875 82.0909H4.26989L4.27415 81.1321C6.0767 81 7.10795 79.9688 7.10795 78.5881C7.10795 77.0156 5.70597 76.4062 4.59801 76.1335L4.28693 76.0526L4.29545 73.3168C5.09233 73.4233 5.63778 73.8665 5.71875 74.5653H6.98864C6.95455 73.2656 5.88068 72.294 4.29972 72.1662L4.30398 71.1818H3.50284L3.49858 72.1747C1.96875 72.3281 0.848011 73.2827 0.848011 74.6591C0.848011 75.8736 1.71733 76.5852 3.11932 76.9645L3.4858 77.0625L3.47727 79.9645C2.64631 79.8622 2.00284 79.4105 1.93466 78.5881H0.613636C0.694602 80.0582 1.75568 81.0043 3.47301 81.1321L3.46875 82.0909ZM4.27841 79.9645L4.28693 77.2841C5.15199 77.5227 5.80398 77.8381 5.80398 78.5753C5.80398 79.321 5.18182 79.8452 4.27841 79.9645ZM3.49006 75.8395C2.85511 75.652 2.15625 75.3153 2.16051 74.5824C2.16051 73.9432 2.66761 73.4446 3.49432 73.321L3.49006 75.8395ZM15.1315 76.0866H11.2622V77.1903H15.1315V76.0866ZM19.8837 72.2727H18.601L16.4235 73.696V74.9574L18.5115 73.5938H18.5627V81H19.8837V72.2727ZM25.0428 81.1449C27.0585 81.1449 28.2389 79.5 28.2389 76.6406C28.2389 73.8026 27.0414 72.1534 25.0428 72.1534C23.04 72.1534 21.8468 73.7983 21.8426 76.6406C21.8426 79.4957 23.023 81.1406 25.0428 81.1449ZM25.0428 80.0071C23.8624 80.0071 23.1508 78.8224 23.1508 76.6406C23.1551 74.4673 23.8667 73.2699 25.0428 73.2699C26.2147 73.2699 26.9306 74.4673 26.9306 76.6406C26.9306 78.8224 26.219 80.0071 25.0428 80.0071ZM32.5489 81.1449C34.5646 81.1449 35.745 79.5 35.745 76.6406C35.745 73.8026 34.5475 72.1534 32.5489 72.1534C30.5461 72.1534 29.3529 73.7983 29.3486 76.6406C29.3486 79.4957 30.529 81.1406 32.5489 81.1449ZM32.5489 80.0071C31.3685 80.0071 30.6569 78.8224 30.6569 76.6406C30.6611 74.4673 31.3728 73.2699 32.5489 73.2699C33.7208 73.2699 34.4367 74.4673 34.4367 76.6406C34.4367 78.8224 33.7251 80.0071 32.5489 80.0071ZM37.0337 81H38.3079V78.6776L38.9428 78.0426L41.1672 81H42.7312L39.9016 77.2628L42.5522 74.4545H41.0266L38.4187 77.2244H38.3079V72.2727H37.0337V81Z" fill="black" fill-opacity="0.4"/>
    <path d="M68.3146 114.273H67.032L64.8544 115.696V116.957L66.9425 115.594H66.9936V123H68.3146V114.273Z" fill="black" fill-opacity="0.4"/>
    <path d="M140.562 114.273H139.279L137.101 115.696V116.957L139.189 115.594H139.241V123H140.562V114.273ZM145.721 123.145C147.736 123.145 148.917 121.5 148.917 118.641C148.917 115.803 147.719 114.153 145.721 114.153C143.718 114.153 142.525 115.798 142.52 118.641C142.52 121.496 143.701 123.141 145.721 123.145ZM145.721 122.007C144.54 122.007 143.829 120.822 143.829 118.641C143.833 116.467 144.545 115.27 145.721 115.27C146.893 115.27 147.609 116.467 147.609 118.641C147.609 120.822 146.897 122.007 145.721 122.007Z" fill="black" fill-opacity="0.4"/>
    <path d="M212.407 123H218.151V121.871H214.222V121.807L215.956 119.991C217.554 118.376 218.01 117.605 218.01 116.629C218.01 115.227 216.868 114.153 215.224 114.153C213.591 114.153 212.398 115.21 212.398 116.804H213.655C213.651 115.866 214.256 115.253 215.198 115.253C216.084 115.253 216.758 115.798 216.758 116.668C216.758 117.439 216.297 117.993 215.36 118.986L212.407 122.045V123ZM222.564 123.145C224.58 123.145 225.761 121.5 225.761 118.641C225.761 115.803 224.563 114.153 222.564 114.153C220.562 114.153 219.368 115.798 219.364 118.641C219.364 121.496 220.545 123.141 222.564 123.145ZM222.564 122.007C221.384 122.007 220.672 120.822 220.672 118.641C220.677 116.467 221.388 115.27 222.564 115.27C223.736 115.27 224.452 116.467 224.452 118.641C224.452 120.822 223.741 122.007 222.564 122.007Z" fill="black" fill-opacity="0.4"/>
    <path d="M291.258 123.119C293.039 123.119 294.347 122.054 294.343 120.605C294.347 119.501 293.678 118.709 292.519 118.53V118.462C293.431 118.227 294.023 117.511 294.019 116.531C294.023 115.249 292.971 114.153 291.292 114.153C289.689 114.153 288.402 115.121 288.36 116.54H289.634C289.664 115.739 290.418 115.253 291.275 115.253C292.165 115.253 292.749 115.794 292.745 116.599C292.749 117.443 292.072 117.997 291.104 117.997H290.367V119.071H291.104C292.314 119.071 293.013 119.685 293.013 120.562C293.013 121.411 292.276 121.986 291.249 121.986C290.303 121.986 289.566 121.5 289.515 120.724H288.177C288.232 122.148 289.493 123.119 291.258 123.119ZM298.752 123.145C300.768 123.145 301.948 121.5 301.948 118.641C301.948 115.803 300.751 114.153 298.752 114.153C296.749 114.153 295.556 115.798 295.552 118.641C295.552 121.496 296.732 123.141 298.752 123.145ZM298.752 122.007C297.572 122.007 296.86 120.822 296.86 118.641C296.864 116.467 297.576 115.27 298.752 115.27C299.924 115.27 300.64 116.467 300.64 118.641C300.64 120.822 299.928 122.007 298.752 122.007Z" fill="black" fill-opacity="0.4"/>
</svg>
