<svg width="757" height="436" viewBox="0 0 757 436" fill="none" xmlns="http://www.w3.org/2000/svg">
    <rect width="757" height="436" rx="8" fill="white"/>
    <path d="M56 32H701" stroke="#E6E6E6"/>
    <path d="M56 88H701" stroke="#E6E6E6"/>
    <path d="M56 144H701" stroke="black" stroke-opacity="0.08"/>
    <path d="M56 200H701" stroke="black" stroke-opacity="0.1"/>
    <path d="M56 256H701" stroke="black" stroke-opacity="0.08"/>
    <path d="M56 312H701" stroke="black" stroke-opacity="0.08"/>
    <path d="M56 368H701" stroke="black" stroke-opacity="0.08"/>
    <path d="M75.0352 391V396.672C75.0312 397.594 74.6016 398.086 73.8359 398.086C73.1289 398.086 72.6367 397.664 72.6328 397H71.4336C71.4336 398.352 72.4492 399.109 73.8047 399.109C75.2734 399.109 76.2344 398.211 76.2383 396.672V391H75.0352ZM79.6475 399.133C80.6396 399.133 81.1982 398.629 81.4209 398.18H81.4678V399H82.6084V395.016C82.6084 393.27 81.2334 392.922 80.2803 392.922C79.1943 392.922 78.1943 393.359 77.8037 394.453L78.9014 394.703C79.0732 394.277 79.5107 393.867 80.2959 393.867C81.0498 393.867 81.4365 394.262 81.4365 394.941V394.969C81.4365 395.395 80.999 395.387 79.9209 395.512C78.7842 395.645 77.6201 395.941 77.6201 397.305C77.6201 398.484 78.5068 399.133 79.6475 399.133ZM79.9014 398.195C79.2412 398.195 78.7646 397.898 78.7646 397.32C78.7646 396.695 79.3193 396.473 79.9951 396.383C80.374 396.332 81.2725 396.23 81.4404 396.062V396.836C81.4404 397.547 80.874 398.195 79.9014 398.195ZM85.332 395.437C85.332 394.48 85.918 393.934 86.7305 393.934C87.5234 393.934 88.0039 394.453 88.0039 395.324V399H89.1719V395.184C89.1719 393.699 88.3555 392.922 87.1289 392.922C86.2266 392.922 85.6367 393.34 85.3594 393.977H85.2852V393H84.1641V399H85.332V395.437ZM68.3735 413H73.6392V411.965H70.0376V411.906L71.6274 410.242C73.0923 408.762 73.5103 408.055 73.5103 407.16C73.5103 405.875 72.4634 404.891 70.9556 404.891C69.4595 404.891 68.3657 405.859 68.3657 407.32H69.5181C69.5142 406.461 70.0688 405.898 70.9321 405.898C71.7446 405.898 72.3618 406.398 72.3618 407.195C72.3618 407.902 71.9399 408.41 71.0806 409.32L68.3735 412.125V413ZM77.9048 413.133C79.7524 413.133 80.8345 411.625 80.8345 409.004C80.8345 406.402 79.7368 404.891 77.9048 404.891C76.0688 404.891 74.9751 406.398 74.9712 409.004C74.9712 411.621 76.0532 413.129 77.9048 413.133ZM77.9048 412.09C76.8228 412.09 76.1704 411.004 76.1704 409.004C76.1743 407.012 76.8267 405.914 77.9048 405.914C78.979 405.914 79.6353 407.012 79.6353 409.004C79.6353 411.004 78.9829 412.09 77.9048 412.09ZM82.2202 413H87.4858V411.965H83.8843V411.906L85.4741 410.242C86.939 408.762 87.3569 408.055 87.3569 407.16C87.3569 405.875 86.3101 404.891 84.8022 404.891C83.3062 404.891 82.2124 405.859 82.2124 407.32H83.3647C83.3608 406.461 83.9155 405.898 84.7788 405.898C85.5913 405.898 86.2085 406.398 86.2085 407.195C86.2085 407.902 85.7866 408.41 84.9272 409.32L82.2202 412.125V413ZM92.0015 405H90.8257L88.8296 406.305V407.461L90.7437 406.211H90.7905V413H92.0015V405Z" fill="black" fill-opacity="0.5"/>
    <path d="M145.706 399H146.913V395.512H150.311V394.477H146.913V392.039H150.667V391H145.706V399ZM154.203 399.121C155.511 399.121 156.437 398.477 156.703 397.5L155.597 397.301C155.386 397.867 154.878 398.156 154.214 398.156C153.214 398.156 152.542 397.508 152.511 396.352H156.777V395.937C156.777 393.77 155.48 392.922 154.121 392.922C152.449 392.922 151.347 394.195 151.347 396.039C151.347 397.902 152.433 399.121 154.203 399.121ZM152.515 395.477C152.562 394.625 153.179 393.887 154.128 393.887C155.035 393.887 155.628 394.559 155.632 395.477H152.515ZM158.167 399H159.307V398.066H159.405C159.616 398.449 160.045 399.117 161.139 399.117C162.592 399.117 163.647 397.953 163.647 396.012C163.647 394.066 162.577 392.922 161.127 392.922C160.014 392.922 159.612 393.602 159.405 393.973H159.334V391H158.167V399ZM159.311 396C159.311 394.746 159.858 393.914 160.877 393.914C161.936 393.914 162.467 394.809 162.467 396C162.467 397.203 161.92 398.121 160.877 398.121C159.874 398.121 159.311 397.262 159.311 396ZM142.374 413H147.639V411.965H144.038V411.906L145.627 410.242C147.092 408.762 147.51 408.055 147.51 407.16C147.51 405.875 146.463 404.891 144.956 404.891C143.459 404.891 142.366 405.859 142.366 407.32H143.518C143.514 406.461 144.069 405.898 144.932 405.898C145.745 405.898 146.362 406.398 146.362 407.195C146.362 407.902 145.94 408.41 145.081 409.32L142.374 412.125V413ZM151.905 413.133C153.752 413.133 154.834 411.625 154.834 409.004C154.834 406.402 153.737 404.891 151.905 404.891C150.069 404.891 148.975 406.398 148.971 409.004C148.971 411.621 150.053 413.129 151.905 413.133ZM151.905 412.09C150.823 412.09 150.17 411.004 150.17 409.004C150.174 407.012 150.827 405.914 151.905 405.914C152.979 405.914 153.635 407.012 153.635 409.004C153.635 411.004 152.983 412.09 151.905 412.09ZM156.22 413H161.486V411.965H157.884V411.906L159.474 410.242C160.939 408.762 161.357 408.055 161.357 407.16C161.357 405.875 160.31 404.891 158.802 404.891C157.306 404.891 156.212 405.859 156.212 407.32H157.365C157.361 406.461 157.916 405.898 158.779 405.898C159.591 405.898 160.208 406.398 160.208 407.195C160.208 407.902 159.787 408.41 158.927 409.32L156.22 412.125V413ZM166.001 405H164.826L162.83 406.305V407.461L164.744 406.211H164.791V413H166.001V405Z" fill="black" fill-opacity="0.5"/>
    <path d="M219.201 391V399H220.349V393.207H220.423L222.783 398.988H223.736L226.095 393.211H226.169V399H227.318V391H225.853L223.306 397.219H223.212L220.666 391H219.201ZM230.725 399.133C231.717 399.133 232.276 398.629 232.499 398.18H232.545V399H233.686V395.016C233.686 393.27 232.311 392.922 231.358 392.922C230.272 392.922 229.272 393.359 228.881 394.453L229.979 394.703C230.151 394.277 230.588 393.867 231.374 393.867C232.127 393.867 232.514 394.262 232.514 394.941V394.969C232.514 395.395 232.077 395.387 230.999 395.512C229.862 395.645 228.698 395.941 228.698 397.305C228.698 398.484 229.584 399.133 230.725 399.133ZM230.979 398.195C230.319 398.195 229.842 397.898 229.842 397.32C229.842 396.695 230.397 396.473 231.073 396.383C231.452 396.332 232.35 396.23 232.518 396.062V396.836C232.518 397.547 231.952 398.195 230.979 398.195ZM235.242 399H236.41V395.336C236.41 394.551 237.015 393.984 237.843 393.984C238.085 393.984 238.359 394.027 238.453 394.055V392.937C238.335 392.922 238.105 392.91 237.957 392.91C237.253 392.91 236.652 393.309 236.433 393.953H236.371V393H235.242V399ZM216.374 413H221.639V411.965H218.038V411.906L219.627 410.242C221.092 408.762 221.51 408.055 221.51 407.16C221.51 405.875 220.463 404.891 218.956 404.891C217.459 404.891 216.366 405.859 216.366 407.32H217.518C217.514 406.461 218.069 405.898 218.932 405.898C219.745 405.898 220.362 406.398 220.362 407.195C220.362 407.902 219.94 408.41 219.081 409.32L216.374 412.125V413ZM225.905 413.133C227.752 413.133 228.834 411.625 228.834 409.004C228.834 406.402 227.737 404.891 225.905 404.891C224.069 404.891 222.975 406.398 222.971 409.004C222.971 411.621 224.053 413.129 225.905 413.133ZM225.905 412.09C224.823 412.09 224.17 411.004 224.17 409.004C224.174 407.012 224.827 405.914 225.905 405.914C226.979 405.914 227.635 407.012 227.635 409.004C227.635 411.004 226.983 412.09 225.905 412.09ZM230.22 413H235.486V411.965H231.884V411.906L233.474 410.242C234.939 408.762 235.357 408.055 235.357 407.16C235.357 405.875 234.31 404.891 232.802 404.891C231.306 404.891 230.212 405.859 230.212 407.32H231.365C231.361 406.461 231.916 405.898 232.779 405.898C233.591 405.898 234.208 406.398 234.208 407.195C234.208 407.902 233.787 408.41 232.927 409.32L230.22 412.125V413ZM240.001 405H238.826L236.83 406.305V407.461L238.744 406.211H238.791V413H240.001V405Z" fill="black" fill-opacity="0.5"/>
    <path d="M294.698 399L295.433 396.883H298.558L299.288 399H300.569L297.69 391H296.296L293.417 399H294.698ZM295.784 395.867L296.964 392.453H297.026L298.206 395.867H295.784ZM301.631 401.25H302.799V398.066H302.869C303.08 398.449 303.51 399.117 304.604 399.117C306.057 399.117 307.111 397.953 307.111 396.012C307.111 394.066 306.041 392.922 304.592 392.922C303.479 392.922 303.076 393.602 302.869 393.973H302.771V393H301.631V401.25ZM302.775 396C302.775 394.746 303.322 393.914 304.342 393.914C305.4 393.914 305.932 394.809 305.932 396C305.932 397.203 305.385 398.121 304.342 398.121C303.338 398.121 302.775 397.262 302.775 396ZM308.42 399H309.588V395.336C309.588 394.551 310.193 393.984 311.021 393.984C311.264 393.984 311.537 394.027 311.631 394.055V392.937C311.514 392.922 311.283 392.91 311.135 392.91C310.432 392.91 309.83 393.309 309.611 393.953H309.549V393H308.42V399ZM290.374 413H295.639V411.965H292.038V411.906L293.627 410.242C295.092 408.762 295.51 408.055 295.51 407.16C295.51 405.875 294.463 404.891 292.956 404.891C291.459 404.891 290.366 405.859 290.366 407.32H291.518C291.514 406.461 292.069 405.898 292.932 405.898C293.745 405.898 294.362 406.398 294.362 407.195C294.362 407.902 293.94 408.41 293.081 409.32L290.374 412.125V413ZM299.905 413.133C301.752 413.133 302.834 411.625 302.834 409.004C302.834 406.402 301.737 404.891 299.905 404.891C298.069 404.891 296.975 406.398 296.971 409.004C296.971 411.621 298.053 413.129 299.905 413.133ZM299.905 412.09C298.823 412.09 298.17 411.004 298.17 409.004C298.174 407.012 298.827 405.914 299.905 405.914C300.979 405.914 301.635 407.012 301.635 409.004C301.635 411.004 300.983 412.09 299.905 412.09ZM304.22 413H309.486V411.965H305.884V411.906L307.474 410.242C308.939 408.762 309.357 408.055 309.357 407.16C309.357 405.875 308.31 404.891 306.802 404.891C305.306 404.891 304.212 405.859 304.212 407.32H305.365C305.361 406.461 305.916 405.898 306.779 405.898C307.591 405.898 308.208 406.398 308.208 407.195C308.208 407.902 307.787 408.41 306.927 409.32L304.22 412.125V413ZM314.001 405H312.826L310.83 406.305V407.461L312.744 406.211H312.791V413H314.001V405Z" fill="black" fill-opacity="0.5"/>
    <path d="M364.843 391V399H365.991V393.207H366.065L368.425 398.988H369.378L371.737 393.211H371.812V399H372.96V391H371.495L368.948 397.219H368.854L366.308 391H364.843ZM376.367 399.133C377.359 399.133 377.918 398.629 378.141 398.18H378.188V399H379.328V395.016C379.328 393.27 377.953 392.922 377 392.922C375.914 392.922 374.914 393.359 374.523 394.453L375.621 394.703C375.793 394.277 376.23 393.867 377.016 393.867C377.77 393.867 378.156 394.262 378.156 394.941V394.969C378.156 395.395 377.719 395.387 376.641 395.512C375.504 395.645 374.34 395.941 374.34 397.305C374.34 398.484 375.227 399.133 376.367 399.133ZM376.621 398.195C375.961 398.195 375.484 397.898 375.484 397.32C375.484 396.695 376.039 396.473 376.715 396.383C377.094 396.332 377.992 396.23 378.16 396.062V396.836C378.16 397.547 377.594 398.195 376.621 398.195ZM381.407 401.25C382.372 401.25 382.981 400.746 383.329 399.801L385.81 393.012L384.548 393L383.028 397.656H382.966L381.446 393H380.196L382.392 399.078L382.247 399.477C381.95 400.273 381.532 400.34 380.892 400.164L380.61 401.121C380.751 401.184 381.056 401.25 381.407 401.25ZM364.374 413H369.639V411.965H366.038V411.906L367.627 410.242C369.092 408.762 369.51 408.055 369.51 407.16C369.51 405.875 368.463 404.891 366.956 404.891C365.459 404.891 364.366 405.859 364.366 407.32H365.518C365.514 406.461 366.069 405.898 366.932 405.898C367.745 405.898 368.362 406.398 368.362 407.195C368.362 407.902 367.94 408.41 367.081 409.32L364.374 412.125V413ZM373.905 413.133C375.752 413.133 376.834 411.625 376.834 409.004C376.834 406.402 375.737 404.891 373.905 404.891C372.069 404.891 370.975 406.398 370.971 409.004C370.971 411.621 372.053 413.129 373.905 413.133ZM373.905 412.09C372.823 412.09 372.17 411.004 372.17 409.004C372.174 407.012 372.827 405.914 373.905 405.914C374.979 405.914 375.635 407.012 375.635 409.004C375.635 411.004 374.983 412.09 373.905 412.09ZM378.22 413H383.486V411.965H379.884V411.906L381.474 410.242C382.939 408.762 383.357 408.055 383.357 407.16C383.357 405.875 382.31 404.891 380.802 404.891C379.306 404.891 378.212 405.859 378.212 407.32H379.365C379.361 406.461 379.916 405.898 380.779 405.898C381.591 405.898 382.208 406.398 382.208 407.195C382.208 407.902 381.787 408.41 380.927 409.32L378.22 412.125V413ZM388.001 405H386.826L384.83 406.305V407.461L386.744 406.211H386.791V413H388.001V405Z" fill="black" fill-opacity="0.5"/>
    <path d="M444.896 391V396.672C444.892 397.594 444.462 398.086 443.696 398.086C442.989 398.086 442.497 397.664 442.493 397H441.294C441.294 398.352 442.31 399.109 443.665 399.109C445.134 399.109 446.095 398.211 446.099 396.672V391H444.896ZM451.563 396.512C451.566 397.531 450.809 398.016 450.152 398.016C449.43 398.016 448.93 397.492 448.93 396.676V393H447.762V396.816C447.762 398.305 448.578 399.078 449.73 399.078C450.633 399.078 451.246 398.602 451.523 397.961H451.586V399H452.734V393H451.563V396.512ZM455.472 395.437C455.472 394.48 456.058 393.934 456.87 393.934C457.663 393.934 458.144 394.453 458.144 395.324V399H459.312V395.184C459.312 393.699 458.495 392.922 457.269 392.922C456.366 392.922 455.776 393.34 455.499 393.977H455.425V393H454.304V399H455.472V395.437ZM438.374 413H443.639V411.965H440.038V411.906L441.627 410.242C443.092 408.762 443.51 408.055 443.51 407.16C443.51 405.875 442.463 404.891 440.956 404.891C439.459 404.891 438.366 405.859 438.366 407.32H439.518C439.514 406.461 440.069 405.898 440.932 405.898C441.745 405.898 442.362 406.398 442.362 407.195C442.362 407.902 441.94 408.41 441.081 409.32L438.374 412.125V413ZM447.905 413.133C449.752 413.133 450.834 411.625 450.834 409.004C450.834 406.402 449.737 404.891 447.905 404.891C446.069 404.891 444.975 406.398 444.971 409.004C444.971 411.621 446.053 413.129 447.905 413.133ZM447.905 412.09C446.823 412.09 446.17 411.004 446.17 409.004C446.174 407.012 446.827 405.914 447.905 405.914C448.979 405.914 449.635 407.012 449.635 409.004C449.635 411.004 448.983 412.09 447.905 412.09ZM452.22 413H457.486V411.965H453.884V411.906L455.474 410.242C456.939 408.762 457.357 408.055 457.357 407.16C457.357 405.875 456.31 404.891 454.802 404.891C453.306 404.891 452.212 405.859 452.212 407.32H453.365C453.361 406.461 453.916 405.898 454.779 405.898C455.591 405.898 456.208 406.398 456.208 407.195C456.208 407.902 455.787 408.41 454.927 409.32L452.22 412.125V413ZM462.001 405H460.826L458.83 406.305V407.461L460.744 406.211H460.791V413H462.001V405Z" fill="black" fill-opacity="0.5"/>
    <path d="M520.813 391V396.672C520.809 397.594 520.379 398.086 519.614 398.086C518.907 398.086 518.415 397.664 518.411 397H517.211C517.211 398.352 518.227 399.109 519.583 399.109C521.051 399.109 522.012 398.211 522.016 396.672V391H520.813ZM527.48 396.512C527.484 397.531 526.726 398.016 526.07 398.016C525.347 398.016 524.847 397.492 524.847 396.676V393H523.679V396.816C523.679 398.305 524.496 399.078 525.648 399.078C526.55 399.078 527.164 398.602 527.441 397.961H527.503V399H528.652V393H527.48V396.512ZM531.389 391H530.221V399H531.389V391ZM512.374 413H517.639V411.965H514.038V411.906L515.627 410.242C517.092 408.762 517.51 408.055 517.51 407.16C517.51 405.875 516.463 404.891 514.956 404.891C513.459 404.891 512.366 405.859 512.366 407.32H513.518C513.514 406.461 514.069 405.898 514.932 405.898C515.745 405.898 516.362 406.398 516.362 407.195C516.362 407.902 515.94 408.41 515.081 409.32L512.374 412.125V413ZM521.905 413.133C523.752 413.133 524.834 411.625 524.834 409.004C524.834 406.402 523.737 404.891 521.905 404.891C520.069 404.891 518.975 406.398 518.971 409.004C518.971 411.621 520.053 413.129 521.905 413.133ZM521.905 412.09C520.823 412.09 520.17 411.004 520.17 409.004C520.174 407.012 520.827 405.914 521.905 405.914C522.979 405.914 523.635 407.012 523.635 409.004C523.635 411.004 522.983 412.09 521.905 412.09ZM526.22 413H531.486V411.965H527.884V411.906L529.474 410.242C530.939 408.762 531.357 408.055 531.357 407.16C531.357 405.875 530.31 404.891 528.802 404.891C527.306 404.891 526.212 405.859 526.212 407.32H527.365C527.361 406.461 527.916 405.898 528.779 405.898C529.591 405.898 530.208 406.398 530.208 407.195C530.208 407.902 529.787 408.41 528.927 409.32L526.22 412.125V413ZM536.001 405H534.826L532.83 406.305V407.461L534.744 406.211H534.791V413H536.001V405Z" fill="black" fill-opacity="0.5"/>
    <path d="M589.538 399L590.272 396.883H593.397L594.128 399H595.409L592.53 391H591.136L588.257 399H589.538ZM590.624 395.867L591.804 392.453H591.866L593.046 395.867H590.624ZM600.271 396.512C600.275 397.531 599.518 398.016 598.861 398.016C598.139 398.016 597.639 397.492 597.639 396.676V393H596.471V396.816C596.471 398.305 597.287 399.078 598.439 399.078C599.342 399.078 599.955 398.602 600.232 397.961H600.295V399H601.443V393H600.271V396.512ZM605.528 401.375C607.056 401.375 608.235 400.676 608.235 399.133V393H607.091V393.973H607.005C606.798 393.602 606.384 392.922 605.267 392.922C603.817 392.922 602.751 394.066 602.751 395.977C602.751 397.891 603.841 398.91 605.259 398.91C606.36 398.91 606.786 398.289 606.997 397.906H607.071V399.086C607.071 400.027 606.427 400.434 605.54 400.434C604.567 400.434 604.188 399.945 603.981 399.602L602.978 400.016C603.294 400.75 604.095 401.375 605.528 401.375ZM605.517 397.941C604.474 397.941 603.931 397.141 603.931 395.961C603.931 394.809 604.462 393.914 605.517 393.914C606.536 393.914 607.083 394.746 607.083 395.961C607.083 397.199 606.524 397.941 605.517 397.941ZM586.374 413H591.639V411.965H588.038V411.906L589.627 410.242C591.092 408.762 591.51 408.055 591.51 407.16C591.51 405.875 590.463 404.891 588.956 404.891C587.459 404.891 586.366 405.859 586.366 407.32H587.518C587.514 406.461 588.069 405.898 588.932 405.898C589.745 405.898 590.362 406.398 590.362 407.195C590.362 407.902 589.94 408.41 589.081 409.32L586.374 412.125V413ZM595.905 413.133C597.752 413.133 598.834 411.625 598.834 409.004C598.834 406.402 597.737 404.891 595.905 404.891C594.069 404.891 592.975 406.398 592.971 409.004C592.971 411.621 594.053 413.129 595.905 413.133ZM595.905 412.09C594.823 412.09 594.17 411.004 594.17 409.004C594.174 407.012 594.827 405.914 595.905 405.914C596.979 405.914 597.635 407.012 597.635 409.004C597.635 411.004 596.983 412.09 595.905 412.09ZM600.22 413H605.486V411.965H601.884V411.906L603.474 410.242C604.939 408.762 605.357 408.055 605.357 407.16C605.357 405.875 604.31 404.891 602.802 404.891C601.306 404.891 600.212 405.859 600.212 407.32H601.365C601.361 406.461 601.916 405.898 602.779 405.898C603.591 405.898 604.208 406.398 604.208 407.195C604.208 407.902 603.787 408.41 602.927 409.32L600.22 412.125V413ZM610.001 405H608.826L606.83 406.305V407.461L608.744 406.211H608.791V413H610.001V405Z" fill="black" fill-opacity="0.5"/>
    <path d="M651.731 399.133C653.579 399.133 654.661 397.625 654.661 395.004C654.661 392.402 653.563 390.891 651.731 390.891C649.895 390.891 648.801 392.398 648.797 395.004C648.797 397.621 649.879 399.129 651.731 399.133ZM651.731 398.09C650.649 398.09 649.997 397.004 649.997 395.004C650 393.012 650.653 391.914 651.731 391.914C652.805 391.914 653.461 393.012 653.461 395.004C653.461 397.004 652.809 398.09 651.731 398.09ZM659.082 391H657.906L655.91 392.305V393.461L657.824 392.211H657.871V399H659.082V391ZM664.796 394.496H661.25V395.508H664.796V394.496ZM669.373 391H668.197L666.201 392.305V393.461L668.115 392.211H668.162V399H669.373V391ZM674.177 399.109C675.787 399.109 676.935 397.973 676.931 396.414C676.935 394.867 675.857 393.742 674.4 393.742C673.806 393.742 673.255 393.969 672.943 394.273H672.896L673.15 392.035H676.544V391H672.146L671.697 395.031L672.802 395.195C673.103 394.926 673.642 394.742 674.126 394.742C675.076 394.75 675.763 395.461 675.763 396.437C675.763 397.398 675.095 398.094 674.177 398.094C673.404 398.094 672.791 397.602 672.728 396.914H671.556C671.603 398.187 672.708 399.109 674.177 399.109ZM685.742 393.102H686.906C686.871 391.82 685.738 390.891 684.113 390.891C682.507 390.891 681.277 391.809 681.277 393.187C681.277 394.301 682.074 394.953 683.359 395.301L684.304 395.559C685.16 395.785 685.82 396.066 685.82 396.777C685.82 397.559 685.074 398.074 684.046 398.074C683.117 398.074 682.343 397.66 682.273 396.789H681.062C681.14 398.238 682.261 399.133 684.054 399.133C685.933 399.133 687.015 398.145 687.015 396.789C687.015 395.348 685.73 394.789 684.714 394.539L683.933 394.336C683.308 394.176 682.476 393.883 682.48 393.117C682.48 392.437 683.101 391.934 684.085 391.934C685.003 391.934 685.656 392.363 685.742 393.102ZM690.95 399.121C692.258 399.121 693.184 398.477 693.45 397.5L692.344 397.301C692.133 397.867 691.625 398.156 690.961 398.156C689.961 398.156 689.29 397.508 689.258 396.352H693.524V395.937C693.524 393.77 692.227 392.922 690.868 392.922C689.196 392.922 688.094 394.195 688.094 396.039C688.094 397.902 689.18 399.121 690.95 399.121ZM689.262 395.477C689.309 394.625 689.926 393.887 690.875 393.887C691.782 393.887 692.375 394.559 692.379 395.477H689.262ZM694.82 401.25H695.988V398.066H696.058C696.269 398.449 696.699 399.117 697.792 399.117C699.246 399.117 700.3 397.953 700.3 396.012C700.3 394.066 699.23 392.922 697.781 392.922C696.667 392.922 696.265 393.602 696.058 393.973H695.96V393H694.82V401.25ZM695.964 396C695.964 394.746 696.511 393.914 697.531 393.914C698.589 393.914 699.121 394.809 699.121 396C699.121 397.203 698.574 398.121 697.531 398.121C696.527 398.121 695.964 397.262 695.964 396ZM662.374 413H667.639V411.965H664.038V411.906L665.627 410.242C667.092 408.762 667.51 408.055 667.51 407.16C667.51 405.875 666.463 404.891 664.956 404.891C663.459 404.891 662.366 405.859 662.366 407.32H663.518C663.514 406.461 664.069 405.898 664.932 405.898C665.745 405.898 666.362 406.398 666.362 407.195C666.362 407.902 665.94 408.41 665.081 409.32L662.374 412.125V413ZM671.905 413.133C673.752 413.133 674.834 411.625 674.834 409.004C674.834 406.402 673.737 404.891 671.905 404.891C670.069 404.891 668.975 406.398 668.971 409.004C668.971 411.621 670.053 413.129 671.905 413.133ZM671.905 412.09C670.823 412.09 670.17 411.004 670.17 409.004C670.174 407.012 670.827 405.914 671.905 405.914C672.979 405.914 673.635 407.012 673.635 409.004C673.635 411.004 672.983 412.09 671.905 412.09ZM676.22 413H681.486V411.965H677.884V411.906L679.474 410.242C680.939 408.762 681.357 408.055 681.357 407.16C681.357 405.875 680.31 404.891 678.802 404.891C677.306 404.891 676.212 405.859 676.212 407.32H677.365C677.361 406.461 677.916 405.898 678.779 405.898C679.591 405.898 680.208 406.398 680.208 407.195C680.208 407.902 679.787 408.41 678.927 409.32L676.22 412.125V413ZM686.001 405H684.826L682.83 406.305V407.461L684.744 406.211H684.791V413H686.001V405Z" fill="black" fill-opacity="0.5"/>
    <path d="M712.805 28H711.629L709.633 29.3047V30.4609L711.547 29.2109H711.594V36H712.805V28ZM714.969 36H720.234V34.9648H716.633V34.9062L718.223 33.2422C719.688 31.7617 720.105 31.0547 720.105 30.1602C720.105 28.875 719.059 27.8906 717.551 27.8906C716.055 27.8906 714.961 28.8594 714.961 30.3203H716.113C716.109 29.4609 716.664 28.8984 717.527 28.8984C718.34 28.8984 718.957 29.3984 718.957 30.1953C718.957 30.9023 718.535 31.4102 717.676 32.3203L714.969 35.125V36ZM724.5 36.1328C726.348 36.1328 727.43 34.625 727.43 32.0039C727.43 29.4023 726.332 27.8906 724.5 27.8906C722.664 27.8906 721.57 29.3984 721.566 32.0039C721.566 34.6211 722.648 36.1289 724.5 36.1328ZM724.5 35.0898C723.418 35.0898 722.766 34.0039 722.766 32.0039C722.77 30.0117 723.422 28.9141 724.5 28.9141C725.574 28.9141 726.23 30.0117 726.23 32.0039C726.23 34.0039 725.578 35.0898 724.5 35.0898ZM731.601 36.1328C733.448 36.1328 734.53 34.625 734.53 32.0039C734.53 29.4023 733.433 27.8906 731.601 27.8906C729.765 27.8906 728.671 29.3984 728.667 32.0039C728.667 34.6211 729.749 36.1289 731.601 36.1328ZM731.601 35.0898C730.519 35.0898 729.866 34.0039 729.866 32.0039C729.87 30.0117 730.522 28.9141 731.601 28.9141C732.675 28.9141 733.331 30.0117 733.331 32.0039C733.331 34.0039 732.679 35.0898 731.601 35.0898Z" fill="black" fill-opacity="0.5"/>
    <path d="M712.43 83.8906C710.75 83.875 709.652 85.082 709.652 86.5977C709.656 88.125 710.762 89.2266 712.148 89.2266C712.996 89.2266 713.723 88.8125 714.133 88.1406H714.195C714.191 89.9805 713.5 91.0547 712.328 91.0547C711.563 91.0547 711.07 90.5859 710.914 89.9023H709.723C709.898 91.1953 710.898 92.1094 712.328 92.1094C714.188 92.1094 715.352 90.5117 715.352 87.7109C715.348 84.7891 713.855 83.9023 712.43 83.8906ZM712.434 84.9062C713.359 84.9062 714.043 85.6914 714.043 86.5703C714.047 87.4609 713.324 88.2422 712.41 88.2422C711.492 88.2422 710.828 87.5078 710.824 86.582C710.824 85.6523 711.516 84.9062 712.434 84.9062ZM719.548 92.1328C721.396 92.1328 722.478 90.625 722.478 88.0039C722.478 85.4023 721.38 83.8906 719.548 83.8906C717.712 83.8906 716.618 85.3984 716.614 88.0039C716.614 90.6211 717.696 92.1289 719.548 92.1328ZM719.548 91.0898C718.466 91.0898 717.813 90.0039 717.813 88.0039C717.817 86.0117 718.47 84.9141 719.548 84.9141C720.622 84.9141 721.278 86.0117 721.278 88.0039C721.278 90.0039 720.626 91.0898 719.548 91.0898ZM726.648 92.1328C728.496 92.1328 729.578 90.625 729.578 88.0039C729.578 85.4023 728.48 83.8906 726.648 83.8906C724.812 83.8906 723.719 85.3984 723.715 88.0039C723.715 90.6211 724.797 92.1289 726.648 92.1328ZM726.648 91.0898C725.566 91.0898 724.914 90.0039 724.914 88.0039C724.918 86.0117 725.57 84.9141 726.648 84.9141C727.723 84.9141 728.379 86.0117 728.379 88.0039C728.379 90.0039 727.727 91.0898 726.648 91.0898Z" fill="black" fill-opacity="0.5"/>
    <path d="M712.563 148.109C714.234 148.125 715.344 146.922 715.34 145.387C715.344 143.855 714.23 142.758 712.844 142.758C712 142.758 711.27 143.164 710.859 143.84H710.801C710.805 142.023 711.492 140.945 712.664 140.945C713.434 140.945 713.918 141.414 714.082 142.078H715.273C715.09 140.812 714.094 139.891 712.664 139.891C710.805 139.891 709.645 141.488 709.645 144.27C709.641 147.215 711.141 148.098 712.563 148.109ZM712.559 147.094C711.629 147.094 710.949 146.312 710.949 145.414C710.953 144.52 711.664 143.738 712.586 143.738C713.5 143.738 714.172 144.477 714.168 145.402C714.172 146.348 713.473 147.094 712.559 147.094ZM719.548 148.133C721.396 148.133 722.478 146.625 722.478 144.004C722.478 141.402 721.38 139.891 719.548 139.891C717.712 139.891 716.618 141.398 716.614 144.004C716.614 146.621 717.696 148.129 719.548 148.133ZM719.548 147.09C718.466 147.09 717.813 146.004 717.813 144.004C717.817 142.012 718.47 140.914 719.548 140.914C720.622 140.914 721.278 142.012 721.278 144.004C721.278 146.004 720.626 147.09 719.548 147.09ZM726.648 148.133C728.496 148.133 729.578 146.625 729.578 144.004C729.578 141.402 728.48 139.891 726.648 139.891C724.812 139.891 723.719 141.398 723.715 144.004C723.715 146.621 724.797 148.129 726.648 148.133ZM726.648 147.09C725.566 147.09 724.914 146.004 724.914 144.004C724.918 142.012 725.57 140.914 726.648 140.914C727.723 140.914 728.379 142.012 728.379 144.004C728.379 146.004 727.727 147.09 726.648 147.09Z" fill="black" fill-opacity="0.5"/>
    <path d="M712.555 204.109C714.188 204.109 715.387 203.133 715.383 201.805C715.387 200.793 714.773 200.066 713.711 199.902V199.84C714.547 199.625 715.09 198.969 715.086 198.07C715.09 196.895 714.125 195.891 712.586 195.891C711.117 195.891 709.938 196.777 709.898 198.078H711.066C711.094 197.344 711.785 196.898 712.57 196.898C713.387 196.898 713.922 197.395 713.918 198.133C713.922 198.906 713.301 199.414 712.414 199.414H711.738V200.398H712.414C713.523 200.398 714.164 200.961 714.164 201.766C714.164 202.543 713.488 203.07 712.547 203.07C711.68 203.07 711.004 202.625 710.957 201.914H709.73C709.781 203.219 710.938 204.109 712.555 204.109ZM719.645 204.133C721.492 204.133 722.574 202.625 722.574 200.004C722.574 197.402 721.477 195.891 719.645 195.891C717.809 195.891 716.715 197.398 716.711 200.004C716.711 202.621 717.793 204.129 719.645 204.133ZM719.645 203.09C718.563 203.09 717.91 202.004 717.91 200.004C717.914 198.012 718.566 196.914 719.645 196.914C720.719 196.914 721.375 198.012 721.375 200.004C721.375 202.004 720.723 203.09 719.645 203.09ZM726.745 204.133C728.593 204.133 729.675 202.625 729.675 200.004C729.675 197.402 728.577 195.891 726.745 195.891C724.909 195.891 723.815 197.398 723.812 200.004C723.812 202.621 724.894 204.129 726.745 204.133ZM726.745 203.09C725.663 203.09 725.011 202.004 725.011 200.004C725.015 198.012 725.667 196.914 726.745 196.914C727.819 196.914 728.476 198.012 728.476 200.004C728.476 202.004 727.823 203.09 726.745 203.09Z" fill="black" fill-opacity="0.5"/>
    <path d="M712.555 260.133C714.402 260.133 715.484 258.625 715.484 256.004C715.484 253.402 714.387 251.891 712.555 251.891C710.719 251.891 709.625 253.398 709.621 256.004C709.621 258.621 710.703 260.129 712.555 260.133ZM712.555 259.09C711.473 259.09 710.82 258.004 710.82 256.004C710.824 254.012 711.477 252.914 712.555 252.914C713.629 252.914 714.285 254.012 714.285 256.004C714.285 258.004 713.633 259.09 712.555 259.09Z" fill="black" fill-opacity="0.5"/>
    <path d="M713.32 311.496H709.773V312.508H713.32V311.496ZM717.55 316.109C719.183 316.109 720.382 315.133 720.378 313.805C720.382 312.793 719.769 312.066 718.706 311.902V311.84C719.542 311.625 720.085 310.969 720.081 310.07C720.085 308.895 719.12 307.891 717.581 307.891C716.112 307.891 714.933 308.777 714.894 310.078H716.062C716.089 309.344 716.78 308.898 717.565 308.898C718.382 308.898 718.917 309.395 718.913 310.133C718.917 310.906 718.296 311.414 717.409 311.414H716.733V312.398H717.409C718.519 312.398 719.159 312.961 719.159 313.766C719.159 314.543 718.483 315.07 717.542 315.07C716.675 315.07 715.999 314.625 715.952 313.914H714.726C714.776 315.219 715.933 316.109 717.55 316.109ZM724.64 316.133C726.487 316.133 727.569 314.625 727.569 312.004C727.569 309.402 726.472 307.891 724.64 307.891C722.804 307.891 721.71 309.398 721.706 312.004C721.706 314.621 722.788 316.129 724.64 316.133ZM724.64 315.09C723.558 315.09 722.905 314.004 722.905 312.004C722.909 310.012 723.562 308.914 724.64 308.914C725.714 308.914 726.37 310.012 726.37 312.004C726.37 314.004 725.718 315.09 724.64 315.09ZM731.74 316.133C733.588 316.133 734.67 314.625 734.67 312.004C734.67 309.402 733.572 307.891 731.74 307.891C729.904 307.891 728.811 309.398 728.807 312.004C728.807 314.621 729.889 316.129 731.74 316.133ZM731.74 315.09C730.658 315.09 730.006 314.004 730.006 312.004C730.01 310.012 730.662 308.914 731.74 308.914C732.814 308.914 733.471 310.012 733.471 312.004C733.471 314.004 732.818 315.09 731.74 315.09Z" fill="black" fill-opacity="0.5"/>
    <path d="M713.32 367.496H709.773V368.508H713.32V367.496ZM717.654 372.109C719.326 372.125 720.436 370.922 720.432 369.387C720.436 367.855 719.322 366.758 717.936 366.758C717.092 366.758 716.361 367.164 715.951 367.84H715.893C715.896 366.023 716.584 364.945 717.756 364.945C718.525 364.945 719.01 365.414 719.174 366.078H720.365C720.182 364.812 719.186 363.891 717.756 363.891C715.896 363.891 714.736 365.488 714.736 368.27C714.732 371.215 716.232 372.098 717.654 372.109ZM717.65 371.094C716.721 371.094 716.041 370.312 716.041 369.414C716.045 368.52 716.756 367.738 717.678 367.738C718.592 367.738 719.264 368.477 719.26 369.402C719.264 370.348 718.564 371.094 717.65 371.094ZM724.64 372.133C726.487 372.133 727.569 370.625 727.569 368.004C727.569 365.402 726.472 363.891 724.64 363.891C722.804 363.891 721.71 365.398 721.706 368.004C721.706 370.621 722.788 372.129 724.64 372.133ZM724.64 371.09C723.558 371.09 722.905 370.004 722.905 368.004C722.909 366.012 723.562 364.914 724.64 364.914C725.714 364.914 726.37 366.012 726.37 368.004C726.37 370.004 725.718 371.09 724.64 371.09ZM731.74 372.133C733.588 372.133 734.67 370.625 734.67 368.004C734.67 365.402 733.572 363.891 731.74 363.891C729.904 363.891 728.811 365.398 728.807 368.004C728.807 370.621 729.889 372.129 731.74 372.133ZM731.74 371.09C730.658 371.09 730.006 370.004 730.006 368.004C730.01 366.012 730.662 364.914 731.74 364.914C732.814 364.914 733.471 366.012 733.471 368.004C733.471 370.004 732.818 371.09 731.74 371.09Z" fill="black" fill-opacity="0.5"/>
    <path d="M22.9492 37H23.6836L23.6875 36.1211C25.3398 36 26.2852 35.0547 26.2852 33.7891C26.2852 32.3477 25 31.7891 23.9844 31.5391L23.6992 31.4648L23.707 28.957C24.4375 29.0547 24.9375 29.4609 25.0117 30.1016H26.1758C26.1445 28.9102 25.1602 28.0195 23.7109 27.9023L23.7148 27H22.9805L22.9766 27.9102C21.5742 28.0508 20.5469 28.9258 20.5469 30.1875C20.5469 31.3008 21.3438 31.9531 22.6289 32.3008L22.9648 32.3906L22.957 35.0508C22.1953 34.957 21.6055 34.543 21.543 33.7891H20.332C20.4063 35.1367 21.3789 36.0039 22.9531 36.1211L22.9492 37ZM23.6914 35.0508L23.6992 32.5937C24.4922 32.8125 25.0898 33.1016 25.0898 33.7773C25.0898 34.4609 24.5195 34.9414 23.6914 35.0508ZM22.9687 31.2695C22.3867 31.0977 21.7461 30.7891 21.75 30.1172C21.75 29.5312 22.2148 29.0742 22.9727 28.9609L22.9687 31.2695ZM27.6182 36H32.8838V34.9648H29.2822V34.9062L30.8721 33.2422C32.3369 31.7617 32.7549 31.0547 32.7549 30.1602C32.7549 28.875 31.708 27.8906 30.2002 27.8906C28.7041 27.8906 27.6104 28.8594 27.6104 30.3203H28.7627C28.7588 29.4609 29.3135 28.8984 30.1768 28.8984C30.9893 28.8984 31.6064 29.3984 31.6064 30.1953C31.6064 30.9023 31.1846 31.4102 30.3252 32.3203L27.6182 35.125V36ZM37.1494 36.1328C38.9971 36.1328 40.0791 34.625 40.0791 32.0039C40.0791 29.4023 38.9814 27.8906 37.1494 27.8906C35.3135 27.8906 34.2197 29.3984 34.2158 32.0039C34.2158 34.6211 35.2979 36.1289 37.1494 36.1328ZM37.1494 35.0898C36.0674 35.0898 35.415 34.0039 35.415 32.0039C35.4189 30.0117 36.0713 28.9141 37.1494 28.9141C38.2236 28.9141 38.8799 30.0117 38.8799 32.0039C38.8799 34.0039 38.2275 35.0898 37.1494 35.0898ZM41.5742 36H42.7813V33.5117L43.7266 32.4258L46.3125 36H47.7656L44.5273 31.6016L47.7539 28H46.2344L42.8789 31.8203H42.7813V28H41.5742V36Z" fill="black" fill-opacity="0.5"/>
    <path d="M24.7754 93H25.5098L25.5137 92.1211C27.166 92 28.1113 91.0547 28.1113 89.7891C28.1113 88.3477 26.8262 87.7891 25.8105 87.5391L25.5254 87.4648L25.5332 84.957C26.2637 85.0547 26.7637 85.4609 26.8379 86.1016H28.002C27.9707 84.9102 26.9863 84.0195 25.5371 83.9023L25.541 83H24.8066L24.8027 83.9102C23.4004 84.0508 22.373 84.9258 22.373 86.1875C22.373 87.3008 23.1699 87.9531 24.4551 88.3008L24.791 88.3906L24.7832 91.0508C24.0215 90.957 23.4316 90.543 23.3691 89.7891H22.1582C22.2324 91.1367 23.2051 92.0039 24.7793 92.1211L24.7754 93ZM25.5176 91.0508L25.5254 88.5937C26.3184 88.8125 26.916 89.1016 26.916 89.7773C26.916 90.4609 26.3457 90.9414 25.5176 91.0508ZM24.7949 87.2695C24.2129 87.0977 23.5723 86.7891 23.5762 86.1172C23.5762 85.5312 24.041 85.0742 24.7988 84.9609L24.7949 87.2695ZM32.4795 84H31.3037L29.3076 85.3047V86.4609L31.2217 85.2109H31.2686V92H32.4795V84ZM37.2842 92.1094C38.8936 92.1094 40.042 90.9727 40.0381 89.4141C40.042 87.8672 38.9639 86.7422 37.5068 86.7422C36.9131 86.7422 36.3623 86.9687 36.0498 87.2734H36.0029L36.2568 85.0352H39.6514V84H35.2529L34.8037 88.0312L35.9092 88.1953C36.21 87.9258 36.749 87.7422 37.2334 87.7422C38.1826 87.75 38.8701 88.4609 38.8701 89.4375C38.8701 90.3984 38.2021 91.0937 37.2842 91.0937C36.5107 91.0937 35.8975 90.6016 35.835 89.9141H34.6631C34.71 91.1875 35.8154 92.1094 37.2842 92.1094ZM41.5742 92H42.7813V89.5117L43.7266 88.4258L46.3125 92H47.7656L44.5273 87.6016L47.7539 84H46.2344L42.8789 87.8203H42.7813V84H41.5742V92Z" fill="black" fill-opacity="0.5"/>
    <path d="M24.4961 149H25.2305L25.2344 148.121C26.8867 148 27.832 147.055 27.832 145.789C27.832 144.348 26.5469 143.789 25.5313 143.539L25.2461 143.465L25.2539 140.957C25.9844 141.055 26.4844 141.461 26.5586 142.102H27.7227C27.6914 140.91 26.707 140.02 25.2578 139.902L25.2617 139H24.5273L24.5234 139.91C23.1211 140.051 22.0938 140.926 22.0938 142.187C22.0938 143.301 22.8906 143.953 24.1758 144.301L24.5117 144.391L24.5039 147.051C23.7422 146.957 23.1523 146.543 23.0898 145.789H21.8789C21.9531 147.137 22.9258 148.004 24.5 148.121L24.4961 149ZM25.2383 147.051L25.2461 144.594C26.0391 144.812 26.6367 145.102 26.6367 145.777C26.6367 146.461 26.0664 146.941 25.2383 147.051ZM24.5156 143.27C23.9336 143.098 23.293 142.789 23.2969 142.117C23.2969 141.531 23.7617 141.074 24.5195 140.961L24.5156 143.27ZM32.2002 140H31.0244L29.0283 141.305V142.461L30.9424 141.211H30.9893V148H32.2002V140ZM37.1494 148.133C38.9971 148.133 40.0791 146.625 40.0791 144.004C40.0791 141.402 38.9814 139.891 37.1494 139.891C35.3135 139.891 34.2197 141.398 34.2158 144.004C34.2158 146.621 35.2979 148.129 37.1494 148.133ZM37.1494 147.09C36.0674 147.09 35.415 146.004 35.415 144.004C35.4189 142.012 36.0713 140.914 37.1494 140.914C38.2236 140.914 38.8799 142.012 38.8799 144.004C38.8799 146.004 38.2275 147.09 37.1494 147.09ZM41.5742 148H42.7813V145.512L43.7266 144.426L46.3125 148H47.7656L44.5273 143.602L47.7539 140H46.2344L42.8789 143.82H42.7813V140H41.5742V148Z" fill="black" fill-opacity="0.5"/>
    <path d="M29.9746 205H30.709L30.7129 204.121C32.3652 204 33.3105 203.055 33.3105 201.789C33.3105 200.348 32.0254 199.789 31.0098 199.539L30.7246 199.465L30.7324 196.957C31.4629 197.055 31.9629 197.461 32.0371 198.102H33.2012C33.1699 196.91 32.1855 196.02 30.7363 195.902L30.7402 195H30.0059L30.002 195.91C28.5996 196.051 27.5723 196.926 27.5723 198.187C27.5723 199.301 28.3691 199.953 29.6543 200.301L29.9902 200.391L29.9824 203.051C29.2207 202.957 28.6309 202.543 28.5684 201.789H27.3574C27.4316 203.137 28.4043 204.004 29.9785 204.121L29.9746 205ZM30.7168 203.051L30.7246 200.594C31.5176 200.812 32.1152 201.102 32.1152 201.777C32.1152 202.461 31.5449 202.941 30.7168 203.051ZM29.9941 199.27C29.4121 199.098 28.7715 198.789 28.7754 198.117C28.7754 197.531 29.2402 197.074 29.998 196.961L29.9941 199.27ZM37.2842 204.109C38.8936 204.109 40.042 202.973 40.0381 201.414C40.042 199.867 38.9639 198.742 37.5068 198.742C36.9131 198.742 36.3623 198.969 36.0498 199.273H36.0029L36.2568 197.035H39.6514V196H35.2529L34.8037 200.031L35.9092 200.195C36.21 199.926 36.749 199.742 37.2334 199.742C38.1826 199.75 38.8701 200.461 38.8701 201.437C38.8701 202.398 38.2021 203.094 37.2842 203.094C36.5107 203.094 35.8975 202.602 35.835 201.914H34.6631C34.71 203.187 35.8154 204.109 37.2842 204.109ZM41.5742 204H42.7813V201.512L43.7266 200.426L46.3125 204H47.7656L44.5273 199.602L47.7539 196H46.2344L42.8789 199.82H42.7813V196H41.5742V204Z" fill="black" fill-opacity="0.5"/>
    <path d="M37 261H37.7344L37.7383 260.121C39.3906 260 40.3359 259.055 40.3359 257.789C40.3359 256.348 39.0508 255.789 38.0352 255.539L37.75 255.465L37.7578 252.957C38.4883 253.055 38.9883 253.461 39.0625 254.102H40.2266C40.1953 252.91 39.2109 252.02 37.7617 251.902L37.7656 251H37.0312L37.0273 251.91C35.625 252.051 34.5977 252.926 34.5977 254.187C34.5977 255.301 35.3945 255.953 36.6797 256.301L37.0156 256.391L37.0078 259.051C36.2461 258.957 35.6563 258.543 35.5938 257.789H34.3828C34.457 259.137 35.4297 260.004 37.0039 260.121L37 261ZM37.7422 259.051L37.75 256.594C38.543 256.812 39.1406 257.102 39.1406 257.777C39.1406 258.461 38.5703 258.941 37.7422 259.051ZM37.0195 255.27C36.4375 255.098 35.7969 254.789 35.8008 254.117C35.8008 253.531 36.2656 253.074 37.0234 252.961L37.0195 255.27ZM44.4541 260.133C46.3018 260.133 47.3838 258.625 47.3838 256.004C47.3838 253.402 46.2861 251.891 44.4541 251.891C42.6182 251.891 41.5244 253.398 41.5205 256.004C41.5205 258.621 42.6025 260.129 44.4541 260.133ZM44.4541 259.09C43.3721 259.09 42.7197 258.004 42.7197 256.004C42.7236 254.012 43.376 252.914 44.4541 252.914C45.5283 252.914 46.1846 254.012 46.1846 256.004C46.1846 258.004 45.5322 259.09 44.4541 259.09Z" fill="black" fill-opacity="0.5"/>
    <path d="M24.8828 317H25.6172L25.6211 316.121C27.2734 316 28.2188 315.055 28.2188 313.789C28.2188 312.348 26.9336 311.789 25.918 311.539L25.6328 311.465L25.6406 308.957C26.3711 309.055 26.8711 309.461 26.9453 310.102H28.1094C28.0781 308.91 27.0938 308.02 25.6445 307.902L25.6484 307H24.9141L24.9102 307.91C23.5078 308.051 22.4805 308.926 22.4805 310.187C22.4805 311.301 23.2773 311.953 24.5625 312.301L24.8984 312.391L24.8906 315.051C24.1289 314.957 23.5391 314.543 23.4766 313.789H22.2656C22.3398 315.137 23.3125 316.004 24.8867 316.121L24.8828 317ZM25.625 315.051L25.6328 312.594C26.4258 312.812 27.0234 313.102 27.0234 313.777C27.0234 314.461 26.4531 314.941 25.625 315.051ZM24.9023 311.27C24.3203 311.098 23.6797 310.789 23.6836 310.117C23.6836 309.531 24.1484 309.074 24.9063 308.961L24.9023 311.27ZM33.1025 311.496H29.5557V312.508H33.1025V311.496ZM37.2842 316.109C38.8936 316.109 40.042 314.973 40.0381 313.414C40.042 311.867 38.9639 310.742 37.5068 310.742C36.9131 310.742 36.3623 310.969 36.0498 311.273H36.0029L36.2568 309.035H39.6514V308H35.2529L34.8037 312.031L35.9092 312.195C36.21 311.926 36.749 311.742 37.2334 311.742C38.1826 311.75 38.8701 312.461 38.8701 313.437C38.8701 314.398 38.2021 315.094 37.2842 315.094C36.5107 315.094 35.8975 314.602 35.835 313.914H34.6631C34.71 315.187 35.8154 316.109 37.2842 316.109ZM41.5742 316H42.7813V313.512L43.7266 312.426L46.3125 316H47.7656L44.5273 311.602L47.7539 308H46.2344L42.8789 311.82H42.7813V308H41.5742V316Z" fill="black" fill-opacity="0.5"/>
    <path d="M19.4043 373H20.1387L20.1426 372.121C21.7949 372 22.7402 371.055 22.7402 369.789C22.7402 368.348 21.4551 367.789 20.4395 367.539L20.1543 367.465L20.1621 364.957C20.8926 365.055 21.3926 365.461 21.4668 366.102H22.6309C22.5996 364.91 21.6152 364.02 20.166 363.902L20.1699 363H19.4355L19.4316 363.91C18.0293 364.051 17.002 364.926 17.002 366.187C17.002 367.301 17.7988 367.953 19.084 368.301L19.4199 368.391L19.4121 371.051C18.6504 370.957 18.0605 370.543 17.998 369.789H16.7871C16.8613 371.137 17.834 372.004 19.4082 372.121L19.4043 373ZM20.1465 371.051L20.1543 368.594C20.9473 368.812 21.5449 369.102 21.5449 369.777C21.5449 370.461 20.9746 370.941 20.1465 371.051ZM19.4238 367.27C18.8418 367.098 18.2012 366.789 18.2051 366.117C18.2051 365.531 18.6699 365.074 19.4277 364.961L19.4238 367.27ZM27.624 367.496H24.0771V368.508H27.624V367.496ZM32.2002 364H31.0244L29.0283 365.305V366.461L30.9424 365.211H30.9893V372H32.2002V364ZM37.1494 372.133C38.9971 372.133 40.0791 370.625 40.0791 368.004C40.0791 365.402 38.9814 363.891 37.1494 363.891C35.3135 363.891 34.2197 365.398 34.2158 368.004C34.2158 370.621 35.2979 372.129 37.1494 372.133ZM37.1494 371.09C36.0674 371.09 35.415 370.004 35.415 368.004C35.4189 366.012 36.0713 364.914 37.1494 364.914C38.2236 364.914 38.8799 366.012 38.8799 368.004C38.8799 370.004 38.2275 371.09 37.1494 371.09ZM41.5742 372H42.7813V369.512L43.7266 368.426L46.3125 372H47.7656L44.5273 367.602L47.7539 364H46.2344L42.8789 367.82H42.7813V364H41.5742V372Z" fill="black" fill-opacity="0.5"/>
    <path d="M76.1392 117H60.1392V256H76.1392V117Z" fill="#4FC3F7" stroke="white"/>
    <path d="M96.1392 200H80.1392V256H96.1392V200Z" fill="#7986CB" stroke="white"/>
    <path d="M150 150H134V256H150V150Z" fill="#4FC3F7" stroke="white"/>
    <path d="M170 172H154V256H170V172Z" fill="#7986CB" stroke="white"/>
    <path d="M298 150H282V256H298V150Z" fill="#4FC3F7" stroke="white"/>
    <path d="M318 172H302V256H318V172Z" fill="#7986CB" stroke="white"/>
    <path d="M224 102H208V256H224V102Z" fill="#4FC3F7" stroke="white"/>
    <path d="M244 60H228V256H244V60Z" fill="#7986CB" stroke="white"/>
    <path d="M446 144H430V256H446V144Z" fill="#4FC3F7" stroke="white"/>
    <path d="M466 88H450V256H466V88Z" fill="#7986CB" stroke="white"/>
    <path d="M520 81H504V256H520V81Z" fill="#4FC3F7" stroke="white"/>
    <path d="M540 47H524V256H540V47Z" fill="#7986CB" stroke="white"/>
    <path d="M372 257H356V285H372V257Z" fill="#4FC3F7" stroke="white"/>
    <path d="M392 257H376V354H392V257Z" fill="#7986CB" stroke="white"/>
    <path d="M594 125H578V256H594V125Z" fill="#4FC3F7" stroke="white"/>
    <path d="M614 76H598V256H614V76Z" fill="#7986CB" stroke="white"/>
    <path d="M668 208H652V256H668V208Z" fill="#4FC3F7" stroke="white"/>
    <path d="M688 184H672V256H688V184Z" fill="#7986CB" stroke="white"/>
    <path d="M680 278C659 278 678.5 264 621.5 264C564.5 264 567 119 513 119C459 119 434.66 211 392.5 211C350.34 211 351.5 149 298 148C244.5 147 252 230.5 192.5 233C150.34 233 128.5 225.5 75 224.5" stroke="#FF7043" stroke-width="2" stroke-linecap="round" stroke-linejoin="round"/>
    <path d="M527.996 128L527.995 128C526.669 127.999 525.398 127.471 524.461 126.532C523.525 125.594 522.999 124.322 523 122.996C523.001 121.67 523.529 120.399 524.467 119.462C525.405 118.525 526.677 117.999 528.003 118C529.328 118.001 530.6 118.528 531.537 119.466C532.474 120.404 533 121.675 533 123.001C533 124.327 532.473 125.599 531.535 126.536C530.597 127.473 529.326 128 528 128L527.996 128Z" fill="#FF7043" stroke="white" stroke-width="2"/>
    <path d="M679.996 283L679.995 283C678.669 282.999 677.398 282.471 676.461 281.532C675.525 280.594 674.999 279.322 675 277.996C675.001 276.67 675.529 275.399 676.467 274.462C677.405 273.525 678.677 272.999 680.003 273C681.328 273.001 682.6 273.528 683.537 274.466C684.474 275.404 685 276.675 685 278.001C685 279.327 684.473 280.599 683.535 281.536C682.597 282.473 681.326 283 680 283L679.996 283Z" fill="#FF7043" stroke="white" stroke-width="2"/>
    <path d="M301.996 154L301.995 154C300.669 153.999 299.398 153.471 298.461 152.532C297.525 151.594 296.999 150.322 297 148.996C297.001 147.67 297.529 146.399 298.467 145.462C299.405 144.525 300.677 143.999 302.003 144C303.328 144.001 304.6 144.528 305.537 145.466C306.474 146.404 307 147.675 307 149.001C307 150.327 306.473 151.599 305.535 152.536C304.597 153.473 303.326 154 302 154L301.996 154Z" fill="#FF7043" stroke="white" stroke-width="2"/>
    <path d="M378.996 212L378.995 212C377.669 211.999 376.398 211.471 375.461 210.532C374.525 209.594 373.999 208.322 374 206.996C374.001 205.67 374.529 204.399 375.467 203.462C376.405 202.525 377.677 201.999 379.003 202C380.328 202.001 381.6 202.528 382.537 203.466C383.474 204.404 384 205.675 384 207.001C384 208.327 383.473 209.599 382.535 210.536C381.597 211.473 380.326 212 379 212L378.996 212Z" fill="#FF7043" stroke="white" stroke-width="2"/>
    <path d="M455.996 161L455.995 161C454.669 160.999 453.398 160.471 452.461 159.532C451.525 158.594 450.999 157.322 451 155.996C451.001 154.67 451.529 153.399 452.467 152.462C453.405 151.525 454.677 150.999 456.003 151C457.328 151.001 458.6 151.528 459.537 152.466C460.474 153.404 461 154.675 461 156.001C461 157.327 460.473 158.599 459.535 159.536C458.597 160.473 457.326 161 456 161L455.996 161Z" fill="#FF7043" stroke="white" stroke-width="2"/>
    <path d="M153.996 236L153.995 236C152.669 235.999 151.398 235.471 150.461 234.532C149.525 233.594 148.999 232.322 149 230.996C149.001 229.67 149.529 228.399 150.467 227.462C151.405 226.525 152.677 225.999 154.003 226C155.328 226.001 156.6 226.528 157.537 227.466C158.474 228.404 159 229.675 159 231.001C159 232.327 158.473 233.599 157.535 234.536C156.597 235.473 155.326 236 154 236L153.996 236Z" fill="#FF7043" stroke="white" stroke-width="2"/>
    <path d="M229.996 220L229.995 220C228.669 219.999 227.398 219.471 226.461 218.532C225.525 217.594 224.999 216.322 225 214.996C225.001 213.67 225.529 212.399 226.467 211.462C227.405 210.525 228.677 209.999 230.003 210C231.328 210.001 232.6 210.528 233.537 211.466C234.474 212.404 235 213.675 235 215.001C235 216.327 234.473 217.599 233.535 218.536C232.597 219.473 231.326 220 230 220L229.996 220Z" fill="#FF7043" stroke="white" stroke-width="2"/>
    <path d="M603.996 264L603.995 264C602.669 263.999 601.398 263.471 600.461 262.532C599.525 261.594 598.999 260.322 599 258.996C599.001 257.67 599.529 256.399 600.467 255.462C601.405 254.525 602.677 253.999 604.003 254C605.328 254.001 606.6 254.528 607.537 255.466C608.474 256.404 609 257.675 609 259.001C609 260.327 608.473 261.599 607.535 262.536C606.597 263.473 605.326 264 604 264L603.996 264Z" fill="#FF7043" stroke="white" stroke-width="2"/>
    <path d="M74.996 230L74.995 230C73.6691 229.999 72.3981 229.471 71.4614 228.532C70.5247 227.594 69.999 226.322 70 224.996C70.001 223.67 70.5286 222.399 71.4667 221.462C72.4048 220.525 73.6767 219.999 75.0025 220C76.3284 220.001 77.5997 220.528 78.5369 221.466C79.4741 222.404 80.0003 223.675 80 225.001C79.9997 226.327 79.4727 227.599 78.5351 228.536C77.5974 229.473 76.3259 230 75 230L74.996 230Z" fill="#FF7043" stroke="white" stroke-width="2"/>
    <path d="M75.5004 289C125.5 289 116.012 271 173.012 271C230.012 271 222.012 301.5 276.012 301.5C330.012 301.5 345.352 289 387.512 289C429.672 289 451.012 302 497.512 301.5C544.012 301 596.5 274 680.5 296" stroke="#388E3C" stroke-width="2" stroke-linecap="round" stroke-linejoin="round"/>
    <path d="M75.0161 294L75.0171 294C76.3429 293.999 77.614 293.471 78.5507 292.532C79.4874 291.594 80.0131 290.322 80.0121 288.996C80.0111 287.67 79.4835 286.399 78.5454 285.462C77.6073 284.525 76.3354 283.999 75.0096 284C73.6837 284.001 72.4124 284.528 71.4752 285.466C70.538 286.404 70.0118 287.675 70.0121 289.001C70.0124 290.327 70.5393 291.599 71.477 292.536C72.4146 293.473 73.6862 294 75.0121 294L75.0161 294Z" fill="#388E3C" stroke="white" stroke-width="2"/>
    <path d="M154.016 278L154.017 278C155.343 277.999 156.614 277.471 157.551 276.532C158.487 275.594 159.013 274.322 159.012 272.996C159.011 271.67 158.484 270.399 157.545 269.462C156.607 268.525 155.335 267.999 154.01 268C152.684 268.001 151.412 268.528 150.475 269.466C149.538 270.404 149.012 271.675 149.012 273.001C149.012 274.327 149.539 275.599 150.477 276.536C151.415 277.473 152.686 278 154.012 278L154.016 278Z" fill="#388E3C" stroke="white" stroke-width="2"/>
    <path d="M230.016 293L230.017 293C231.343 292.999 232.614 292.471 233.551 291.532C234.487 290.594 235.013 289.322 235.012 287.996C235.011 286.67 234.484 285.399 233.545 284.462C232.607 283.525 231.335 282.999 230.01 283C228.684 283.001 227.412 283.528 226.475 284.466C225.538 285.404 225.012 286.675 225.012 288.001C225.012 289.327 225.539 290.599 226.477 291.536C227.415 292.473 228.686 293 230.012 293L230.016 293Z" fill="#388E3C" stroke="white" stroke-width="2"/>
    <path d="M303.016 306L303.017 306C304.343 305.999 305.614 305.471 306.551 304.532C307.488 303.594 308.013 302.322 308.012 300.996C308.011 299.67 307.484 298.399 306.546 297.462C305.607 296.525 304.336 295.999 303.01 296C301.684 296.001 300.413 296.528 299.475 297.466C298.538 298.404 298.012 299.675 298.012 301.001C298.013 302.327 298.539 303.599 299.477 304.536C300.415 305.473 301.686 306 303.012 306L303.016 306Z" fill="#388E3C" stroke="white" stroke-width="2"/>
    <path d="M377.016 294L377.017 294C378.343 293.999 379.614 293.471 380.551 292.532C381.488 291.594 382.013 290.322 382.012 288.996C382.011 287.67 381.484 286.399 380.546 285.462C379.607 284.525 378.336 283.999 377.01 284C375.684 284.001 374.413 284.528 373.475 285.466C372.538 286.404 372.012 287.675 372.012 289.001C372.013 290.327 372.539 291.599 373.477 292.536C374.415 293.473 375.686 294 377.012 294L377.016 294Z" fill="#388E3C" stroke="white" stroke-width="2"/>
    <path d="M454.016 303L454.017 303C455.343 302.999 456.614 302.471 457.551 301.532C458.488 300.594 459.013 299.322 459.012 297.996C459.011 296.67 458.484 295.399 457.546 294.462C456.607 293.525 455.336 292.999 454.01 293C452.684 293.001 451.413 293.528 450.475 294.466C449.538 295.404 449.012 296.675 449.012 298.001C449.013 299.327 449.539 300.599 450.477 301.536C451.415 302.473 452.686 303 454.012 303L454.016 303Z" fill="#388E3C" stroke="white" stroke-width="2"/>
    <path d="M528.016 303L528.017 303C529.343 302.999 530.614 302.471 531.551 301.532C532.488 300.594 533.013 299.322 533.012 297.996C533.011 296.67 532.484 295.399 531.546 294.462C530.607 293.525 529.336 292.999 528.01 293C526.684 293.001 525.413 293.528 524.475 294.466C523.538 295.404 523.012 296.675 523.012 298.001C523.013 299.327 523.539 300.599 524.477 301.536C525.415 302.473 526.686 303 528.012 303L528.016 303Z" fill="#388E3C" stroke="white" stroke-width="2"/>
    <path d="M604.016 293L604.017 293C605.343 292.999 606.614 292.471 607.551 291.532C608.488 290.594 609.013 289.322 609.012 287.996C609.011 286.67 608.484 285.399 607.546 284.462C606.607 283.525 605.336 282.999 604.01 283C602.684 283.001 601.413 283.528 600.475 284.466C599.538 285.404 599.012 286.675 599.012 288.001C599.013 289.327 599.539 290.599 600.477 291.536C601.415 292.473 602.686 293 604.012 293L604.016 293Z" fill="#388E3C" stroke="white" stroke-width="2"/>
    <path d="M680.016 301L680.017 301C681.343 300.999 682.614 300.471 683.551 299.532C684.488 298.594 685.013 297.322 685.012 295.996C685.011 294.67 684.484 293.399 683.546 292.462C682.607 291.525 681.336 290.999 680.01 291C678.684 291.001 677.413 291.528 676.475 292.466C675.538 293.404 675.012 294.675 675.012 296.001C675.013 297.327 675.539 298.599 676.477 299.536C677.415 300.473 678.686 301 680.012 301L680.016 301Z" fill="#388E3C" stroke="white" stroke-width="2"/>
</svg>
