<svg width="331" height="126" viewBox="0 0 331 126" fill="none" xmlns="http://www.w3.org/2000/svg">
    <path opacity="0.1" d="M67 0L67 112" stroke="black"/>
    <path opacity="0.1" d="M331 88L6.55651e-07 88" stroke="black" stroke-dasharray="2 2"/>
    <path opacity="0.1" d="M331 32L6.55651e-07 32" stroke="black" stroke-dasharray="2 2"/>
    <path opacity="0.1" d="M143 0L143 112" stroke="black"/>
    <path opacity="0.1" d="M219 0L219 112" stroke="black"/>
    <path opacity="0.1" d="M295 0L295 112" stroke="black"/>
    <path d="M3.87784 81.1449C5.89347 81.1449 7.07386 79.5 7.07386 76.6406C7.07386 73.8026 5.87642 72.1534 3.87784 72.1534C1.875 72.1534 0.681818 73.7983 0.677557 76.6406C0.677557 79.4957 1.85795 81.1406 3.87784 81.1449ZM3.87784 80.0071C2.69744 80.0071 1.9858 78.8224 1.9858 76.6406C1.99006 74.4673 2.7017 73.2699 3.87784 73.2699C5.04972 73.2699 5.76562 74.4673 5.76562 76.6406C5.76562 78.8224 5.05398 80.0071 3.87784 80.0071Z" fill="black" fill-opacity="0.4"/>
    <path d="M3.46875 26.0909H4.26989L4.27415 25.1321C6.0767 25 7.10795 23.9688 7.10795 22.5881C7.10795 21.0156 5.70597 20.4062 4.59801 20.1335L4.28693 20.0526L4.29545 17.3168C5.09233 17.4233 5.63778 17.8665 5.71875 18.5653H6.98864C6.95455 17.2656 5.88068 16.294 4.29972 16.1662L4.30398 15.1818H3.50284L3.49858 16.1747C1.96875 16.3281 0.848011 17.2827 0.848011 18.6591C0.848011 19.8736 1.71733 20.5852 3.11932 20.9645L3.4858 21.0625L3.47727 23.9645C2.64631 23.8622 2.00284 23.4105 1.93466 22.5881H0.613636C0.694602 24.0582 1.75568 25.0043 3.47301 25.1321L3.46875 26.0909ZM4.27841 23.9645L4.28693 21.2841C5.15199 21.5227 5.80398 21.8381 5.80398 22.5753C5.80398 23.321 5.18182 23.8452 4.27841 23.9645ZM3.49006 19.8395C2.85511 19.652 2.15625 19.3153 2.16051 18.5824C2.16051 17.9432 2.66761 17.4446 3.49432 17.321L3.49006 19.8395ZM14.569 16.2727H13.2863L11.1088 17.696V18.9574L13.1968 17.5938H13.248V25H14.569V16.2727ZM19.7282 25.1449C21.7438 25.1449 22.9242 23.5 22.9242 20.6406C22.9242 17.8026 21.7267 16.1534 19.7282 16.1534C17.7253 16.1534 16.5321 17.7983 16.5279 20.6406C16.5279 23.4957 17.7083 25.1406 19.7282 25.1449ZM19.7282 24.0071C18.5478 24.0071 17.8361 22.8224 17.8361 20.6406C17.8404 18.4673 18.552 17.2699 19.7282 17.2699C20.9 17.2699 21.6159 18.4673 21.6159 20.6406C21.6159 22.8224 20.9043 24.0071 19.7282 24.0071ZM27.2342 25.1449C29.2499 25.1449 30.4303 23.5 30.4303 20.6406C30.4303 17.8026 29.2328 16.1534 27.2342 16.1534C25.2314 16.1534 24.0382 17.7983 24.034 20.6406C24.034 23.4957 25.2144 25.1406 27.2342 25.1449ZM27.2342 24.0071C26.0539 24.0071 25.3422 22.8224 25.3422 20.6406C25.3465 18.4673 26.0581 17.2699 27.2342 17.2699C28.4061 17.2699 29.122 18.4673 29.122 20.6406C29.122 22.8224 28.4104 24.0071 27.2342 24.0071ZM31.719 25H32.9932V22.6776L33.6281 22.0426L35.8526 25H37.4165L34.5869 21.2628L37.2375 18.4545H35.7119L33.104 21.2244H32.9932V16.2727H31.719V25Z" fill="black" fill-opacity="0.4"/>
    <path d="M68.3146 114.273H67.032L64.8544 115.696V116.957L66.9425 115.594H66.9936V123H68.3146V114.273Z" fill="black" fill-opacity="0.4"/>
    <path d="M140.562 114.273H139.279L137.101 115.696V116.957L139.189 115.594H139.241V123H140.562V114.273ZM145.721 123.145C147.736 123.145 148.917 121.5 148.917 118.641C148.917 115.803 147.719 114.153 145.721 114.153C143.718 114.153 142.525 115.798 142.52 118.641C142.52 121.496 143.701 123.141 145.721 123.145ZM145.721 122.007C144.54 122.007 143.829 120.822 143.829 118.641C143.833 116.467 144.545 115.27 145.721 115.27C146.893 115.27 147.609 116.467 147.609 118.641C147.609 120.822 146.897 122.007 145.721 122.007Z" fill="black" fill-opacity="0.4"/>
    <path d="M212.407 123H218.151V121.871H214.222V121.807L215.956 119.991C217.554 118.376 218.01 117.605 218.01 116.629C218.01 115.227 216.868 114.153 215.224 114.153C213.591 114.153 212.398 115.21 212.398 116.804H213.655C213.651 115.866 214.256 115.253 215.198 115.253C216.084 115.253 216.758 115.798 216.758 116.668C216.758 117.439 216.297 117.993 215.36 118.986L212.407 122.045V123ZM222.564 123.145C224.58 123.145 225.761 121.5 225.761 118.641C225.761 115.803 224.563 114.153 222.564 114.153C220.562 114.153 219.368 115.798 219.364 118.641C219.364 121.496 220.545 123.141 222.564 123.145ZM222.564 122.007C221.384 122.007 220.672 120.822 220.672 118.641C220.677 116.467 221.388 115.27 222.564 115.27C223.736 115.27 224.452 116.467 224.452 118.641C224.452 120.822 223.741 122.007 222.564 122.007Z" fill="black" fill-opacity="0.4"/>
    <path d="M292.295 123.119C294.076 123.119 295.384 122.054 295.38 120.605C295.384 119.501 294.715 118.709 293.556 118.53V118.462C294.468 118.227 295.06 117.511 295.056 116.531C295.06 115.249 294.008 114.153 292.329 114.153C290.727 114.153 289.44 115.121 289.397 116.54H290.671C290.701 115.739 291.455 115.253 292.312 115.253C293.202 115.253 293.786 115.794 293.782 116.599C293.786 117.443 293.109 117.997 292.141 117.997H291.404V119.071H292.141C293.352 119.071 294.05 119.685 294.05 120.562C294.05 121.411 293.313 121.986 292.286 121.986C291.34 121.986 290.603 121.5 290.552 120.724H289.214C289.269 122.148 290.531 123.119 292.295 123.119ZM300.062 114.273H298.779L296.602 115.696V116.957L298.69 115.594H298.741V123H300.062V114.273Z" fill="black" fill-opacity="0.4"/>
    <path d="M67 65.9995C67 65.9995 74.5 72.964 76 72.964C77.5 72.964 78.3626 81.4994 79.9313 81.4994C81.5 81.4994 86.5 87.9998 88 87.9998C89 87.9998 99 73.4995 100.5 73.4995C102 73.4995 105 80.4994 107 80.4994C108.5 80.4994 111 52.9995 113 52.9995C115.5 52.9995 120.5 55.9995 123 55.9996C125.5 55.9997 139 10 143 10C144.266 10 152.5 20.5 155.5 20.5C158.5 20.5 163.5 43 166.5 43C169.092 43 172.5 39.1425 176 39.1425C178.367 39.1425 178 52 181 52C184 52 187.5 44.5 191.5 44.5C195 44.5 196 64.5 199 64.5C202 64.5 203.5 51 206.5 51C209 51 216.555 58 219 58C220.25 58 226 55.9996 230 55.9996C233.5 55.9996 235 76.5 239 77.5C242 77.5 249 83.948 252 83.948C255 83.948 257 74.5 260 74.5C263 74.5 268 64.5 271.5 64.5C273.5 64.5 276 75.5 278 75.5C280.5 75.5 280.5 50 282.5 50C284.5 50 290.769 55 295 55" stroke="#010080" stroke-width="1.5"/>
    <circle cx="67" cy="66" r="4" fill="#010080" stroke="white" stroke-width="2"/>
    <circle cx="143" cy="10" r="4" fill="#010080" stroke="white" stroke-width="2"/>
    <circle cx="219" cy="58" r="4" fill="#010080" stroke="white" stroke-width="2"/>
    <circle cx="295" cy="55" r="5" fill="#010080" stroke="white" stroke-width="2"/>
</svg>
